<?xml version="1.0" encoding="UTF-8"?>
<svg version="1.1" xmlns="http://www.w3.org/2000/svg" width="611" height="258">
<path d="M0 0 C0.71671875 0.10183594 1.4334375 0.20367188 2.171875 0.30859375 C10.76773578 1.74617736 17.33052716 6.44616915 22.71484375 13.1953125 C28 20.61702128 28 20.61702128 28 24 C28.66 24 29.32 24 30 24 C35.734375 35.46875 41.46875 46.9375 47.203125 58.40625 C47.50669922 59.01331787 47.81027344 59.62038574 48.12304688 60.24584961 C48.952284 61.90455472 49.78085002 63.5635953 50.609375 65.22265625 C51.422793 66.84720736 52.23911637 68.47032081 53.0625 70.08984375 C59 81.79166667 59 81.79166667 59 86 C59.66 86 60.32 86 61 86 C61.71614583 87.953125 62.43229167 89.90625 63.1484375 91.859375 C64.71838216 95.80584138 66.79497594 99.42837692 68.875 103.125 C71.21526269 107.3995039 73.13319796 111.65211218 74.875 116.1953125 C77.97843849 123.93235706 81.39277424 131.75215522 85.9375 138.75 C88 142 88 142 88 145 C88.66 145.33 89.32 145.66 90 146 C90 146.99 90 147.98 90 149 C90.66 149 91.32 149 92 149 C94.65857223 153.62360387 95.68217373 157.73717085 96 163 C96.06445312 163.79792969 96.12890625 164.59585938 96.1953125 165.41796875 C96.48703916 171.69009192 95.71363113 176.82069847 92 182 C82.71189024 191 82.71189024 191 79 191 C78.67 191.66 78.34 192.32 78 193 C76.02 193 74.04 193 72 193 C71.67 193.66 71.34 194.32 71 195 C63.48321576 195.36371537 56.80238126 194.40119063 50 191 C50 190.34 50 189.68 50 189 C48.824375 188.6596875 48.824375 188.6596875 47.625 188.3125 C44.60123387 187.21768812 42.01535829 185.9955444 39.1875 184.5 C35.25011362 182.48401088 31.6488655 181.22533352 27.30078125 180.45703125 C25 180 25 180 21.76171875 179.05078125 C-3.10664549 172.10416652 -32.96090127 173.08370661 -55.9375 185.80859375 C-56.618125 186.20175781 -57.29875 186.59492188 -58 187 C-67.44277416 191.87760945 -75.24034457 195.82137376 -86.125 194.1875 C-87.92324219 193.93033203 -87.92324219 193.93033203 -89.7578125 193.66796875 C-93.79304318 192.836614 -96.09752086 191.90247914 -99 189 C-99.66 188.67 -100.32 188.34 -101 188 C-101 187.34 -101 186.68 -101 186 C-101.99 185.67 -102.98 185.34 -104 185 C-109.81940591 176.00637268 -111.93773855 167.2917204 -109.796875 156.703125 C-108.79955342 153.32005377 -107.29291495 150.77421918 -105.29296875 147.89453125 C-102.71240085 144.11333659 -100.8930289 139.88092167 -98.93359375 135.75390625 C-98.58425781 135.03074219 -98.23492187 134.30757812 -97.875 133.5625 C-97.56304687 132.90378906 -97.25109375 132.24507812 -96.9296875 131.56640625 C-96 130 -96 130 -94 129 C-93.896875 128.175 -93.79375 127.35 -93.6875 126.5 C-92.90379425 122.51022529 -91.36323861 119.84423987 -89.33203125 116.3671875 C-87.63119601 113.34458881 -86.26873723 110.22389973 -84.89453125 107.04296875 C-83.69797009 104.31021116 -82.33406727 101.66813453 -81 99 C-79.74790466 96.26591641 -78.51134123 93.52529966 -77.28125 90.78125 C-75.45398813 86.81475473 -73.4712844 82.93152308 -71.5 79.03515625 C-68.28529543 72.71389723 -68.28529543 72.71389723 -65.375 66.25 C-63.74883585 62.40633928 -61.89092791 58.71861409 -60 55 C-56.4885305 48.07170977 -53.06469684 41.13894088 -50 34 C-49.34 34 -48.68 34 -48 34 C-47.8453125 32.9171875 -47.8453125 32.9171875 -47.6875 31.8125 C-46.93217477 28.72253314 -45.80862024 26.60441314 -44 24 C-43.01 23.505 -43.01 23.505 -42 23 C-41.773125 22.154375 -41.54625 21.30875 -41.3125 20.4375 C-38.10457772 12.03579879 -30.34269807 5.69922516 -22.37109375 1.88671875 C-15.01660368 -0.86364244 -7.6533262 -1.50557237 0 0 Z M-15.6875 51.4375 C-18.97214903 55.07724623 -18.76004919 58.2609715 -19 63 C-19.33333333 64.66666667 -19.66666667 66.33333333 -20 68 C-20.17634042 69.49889354 -20.34200649 70.99906168 -20.5 72.5 C-20.84138068 75.71644614 -21.27833534 78.84271713 -22 82 C-22.061875 82.721875 -22.12375 83.44375 -22.1875 84.1875 C-23 86 -23 86 -25.5 87.1875 C-28.93612859 87.98517271 -32.24609967 88.44752029 -35.75390625 88.75390625 C-38.2113553 89.02315719 -40.5768757 89.51106097 -43 90 C-46.31187628 90.48239079 -49.62581464 90.94621034 -52.94140625 91.40234375 C-55.71038146 91.94340787 -57.67027841 92.43032943 -60 94 C-60.96947431 97.18541559 -61.29934344 99.14802252 -60.1875 102.3125 C-59.09312675 104.15097822 -59.09312675 104.15097822 -57 105 C-54.22602018 105.12347091 -51.47816806 105.18842085 -48.703125 105.203125 C-47.46354034 105.21167511 -47.46354034 105.21167511 -46.19891357 105.22039795 C-44.44707521 105.22985351 -42.69521902 105.23638413 -40.94335938 105.24023438 C-38.27441918 105.24991146 -35.60625844 105.28091706 -32.9375 105.3125 C-31.23437957 105.31903304 -29.53125363 105.32428233 -27.828125 105.328125 C-27.03416321 105.3404718 -26.24020142 105.3528186 -25.42218018 105.36553955 C-20.52756086 105.34605471 -17.29842182 104.59757042 -13 102 C-13 101.34 -13 100.68 -13 100 C-12.401875 99.7525 -11.80375 99.505 -11.1875 99.25 C-8.63280749 97.79017571 -7.58268586 96.46748367 -6 94 C-4.04342501 86.08236811 -4.85067305 77.15121017 -4.875 69.0625 C-4.87113281 67.74958984 -4.86726563 66.43667969 -4.86328125 65.08398438 C-4.86457031 63.83037109 -4.86585938 62.57675781 -4.8671875 61.28515625 C-4.86887939 59.58178101 -4.86887939 59.58178101 -4.87060547 57.84399414 C-4.87390778 54.92363851 -4.87390778 54.92363851 -6 52 C-6.99 52 -7.98 52 -9 52 C-9 51.34 -9 50.68 -9 50 C-12.92010963 49.68556517 -12.92010963 49.68556517 -15.6875 51.4375 Z M32.0078125 101.05078125 C31.22485809 101.0696489 30.44190369 101.08851654 29.63522339 101.10795593 C27.97923576 101.1498117 26.32331876 101.19454647 24.66748047 101.24194336 C22.14174139 101.31203541 19.6159827 101.36646253 17.08984375 101.41992188 C15.47914099 101.46258293 13.8684625 101.50617243 12.2578125 101.55078125 C11.50557404 101.56546951 10.75333557 101.58015778 9.978302 101.59529114 C5.91048541 101.72749561 2.66897495 102.20253639 -1 104 C-1 104.66 -1 105.32 -1 106 C-1.598125 106.226875 -2.19625 106.45375 -2.8125 106.6875 C-7.2842143 109.37052858 -8.63857346 114.19079565 -10 119 C-10.28871825 122.51039773 -10.28871825 122.51039773 -10.23046875 126.2265625 C-10.23001053 126.89666351 -10.22955231 127.56676453 -10.2290802 128.25717163 C-10.22607714 129.66397895 -10.2182497 131.07078353 -10.20581055 132.47753906 C-10.18749342 134.62577126 -10.18530164 136.77357262 -10.18554688 138.921875 C-10.35087818 146.55047422 -10.35087818 146.55047422 -9 154 C-8.34 154 -7.68 154 -7 154 C-7 154.66 -7 155.32 -7 156 C-2.23621897 156.33606724 -2.23621897 156.33606724 2.19140625 154.85546875 C4.66356626 152.31923548 4.5610886 150.62092913 4.6875 147.125 C4.8556794 143.29050957 5.22007907 139.75450306 6 136 C6.14073908 134.35543779 6.26572356 132.70945204 6.375 131.0625 C7.18443053 123.41281148 7.18443053 123.41281148 10 120 C13.27606706 118.80262484 16.54444333 118.38116445 20 118 C21.19302734 117.85304688 21.19302734 117.85304688 22.41015625 117.703125 C24.60503275 117.44711882 26.80150184 117.22232004 29 117 C31.33944736 116.71269945 33.6739143 116.38063221 36 116 C36.70640625 115.89042969 37.4128125 115.78085938 38.140625 115.66796875 C40.60063248 115.24570738 40.60063248 115.24570738 44 114 C46.0628597 110.73380547 46 108.9207051 46 105 C45.34 105 44.68 105 44 105 C43.505 103.515 43.505 103.515 43 102 C39.27272232 100.75757411 35.88080418 100.94446312 32.0078125 101.05078125 Z " fill="#000000" transform="translate(136,31)"/>
<path d="M0 0 C1.41152344 0.07250977 1.41152344 0.07250977 2.8515625 0.14648438 C3.83640625 0.20255859 4.82125 0.25863281 5.8359375 0.31640625 C6.82851563 0.36861328 7.82109375 0.42082031 8.84375 0.47460938 C11.29978318 0.60449574 13.7554311 0.73946789 16.2109375 0.87890625 C18.30427792 4.31791223 18.45909136 7.00205092 18.45385742 10.99267578 C18.45693405 12.2272049 18.46001068 13.46173401 18.46318054 14.7336731 C18.45628365 16.07635688 18.44901674 17.41903882 18.44140625 18.76171875 C18.44021365 20.14126543 18.43976146 21.52081293 18.4400177 22.90036011 C18.43845568 25.78697821 18.43018611 28.6734718 18.41674805 31.56005859 C18.39972672 35.2635742 18.39593478 38.96695347 18.39669323 42.67050362 C18.39642164 45.5168895 18.39094269 48.36324548 18.38369179 51.20962143 C18.3805063 52.57559864 18.37853799 53.94157924 18.37779808 55.30755997 C18.37563509 57.21302761 18.36609875 59.11848262 18.35620117 61.02392578 C18.35048347 62.65130173 18.35048347 62.65130173 18.34465027 64.31155396 C18.2109375 66.87890625 18.2109375 66.87890625 17.2109375 68.87890625 C19.16092879 68.68419514 19.16092879 68.68419514 21.2109375 67.87890625 C22.33609835 66.04606182 22.33609835 66.04606182 23.2109375 63.87890625 C24.7109375 61.62890625 24.7109375 61.62890625 26.2109375 59.87890625 C26.8709375 59.87890625 27.5309375 59.87890625 28.2109375 59.87890625 C28.2109375 59.21890625 28.2109375 58.55890625 28.2109375 57.87890625 C28.8709375 57.87890625 29.5309375 57.87890625 30.2109375 57.87890625 C30.30503906 57.28078125 30.39914062 56.68265625 30.49609375 56.06640625 C31.3721661 53.38552912 32.43021744 52.57600601 34.6484375 50.87890625 C37.38846114 48.7738359 38.84265428 47.06927517 40.2109375 43.87890625 C40.8709375 43.87890625 41.5309375 43.87890625 42.2109375 43.87890625 C42.4378125 43.30140625 42.6646875 42.72390625 42.8984375 42.12890625 C44.60607006 39.20153614 46.40099821 37.77408986 49.2109375 35.87890625 C52.13354492 35.39306641 52.13354492 35.39306641 55.31640625 35.41796875 C56.46431641 35.42183594 57.61222656 35.42570312 58.79492188 35.4296875 C60.57866211 35.46642578 60.57866211 35.46642578 62.3984375 35.50390625 C64.19958008 35.50583984 64.19958008 35.50583984 66.03710938 35.5078125 C74.93002543 35.59799418 74.93002543 35.59799418 77.2109375 37.87890625 C76.8809375 38.86890625 76.5509375 39.85890625 76.2109375 40.87890625 C75.5509375 40.87890625 74.8909375 40.87890625 74.2109375 40.87890625 C74.2109375 41.86890625 74.2109375 42.85890625 74.2109375 43.87890625 C73.5509375 43.87890625 72.8909375 43.87890625 72.2109375 43.87890625 C71.9015625 44.71421875 71.9015625 44.71421875 71.5859375 45.56640625 C69.70053662 48.73730774 67.05734391 50.56620104 64.2109375 52.87890625 C63.5509375 53.86890625 62.8909375 54.85890625 62.2109375 55.87890625 C61.5509375 55.87890625 60.8909375 55.87890625 60.2109375 55.87890625 C60.2109375 56.53890625 60.2109375 57.19890625 60.2109375 57.87890625 C53.2109375 64.87890625 53.2109375 64.87890625 50.7734375 67.25390625 C48.19419153 69.89606066 45.86193979 72.65378732 43.54296875 75.5234375 C43.10339844 75.97074219 42.66382813 76.41804688 42.2109375 76.87890625 C41.5509375 76.87890625 40.8909375 76.87890625 40.2109375 76.87890625 C40.69886964 81.27029555 41.9438579 82.9748355 45.2109375 85.87890625 C46.91590287 87.50637319 48.58990782 89.16781936 50.2109375 90.87890625 C50.2109375 91.53890625 50.2109375 92.19890625 50.2109375 92.87890625 C50.8709375 92.87890625 51.5309375 92.87890625 52.2109375 92.87890625 C52.2109375 93.53890625 52.2109375 94.19890625 52.2109375 94.87890625 C53.2009375 95.20890625 54.1909375 95.53890625 55.2109375 95.87890625 C56.82421875 97.76953125 56.82421875 97.76953125 58.5234375 100.12890625 C60.62321788 102.93156049 62.55886842 105.3654913 65.3359375 107.50390625 C68.21318936 109.88076648 69.92711947 112.11492477 71.9765625 115.17578125 C73.34500855 117.1646472 73.34500855 117.1646472 76.0234375 119.62890625 C78.2109375 121.87890625 78.2109375 121.87890625 78.2109375 124.87890625 C72.5125092 126.06688368 66.88207533 126.13428268 61.0859375 126.19140625 C59.60287109 126.23491211 59.60287109 126.23491211 58.08984375 126.27929688 C50.8330477 126.34312526 50.8330477 126.34312526 47.640625 123.9609375 C47.16882813 123.27386719 46.69703125 122.58679688 46.2109375 121.87890625 C45.6334375 121.34265625 45.0559375 120.80640625 44.4609375 120.25390625 C43.2109375 118.87890625 43.2109375 118.87890625 43.2109375 116.87890625 C42.2209375 116.54890625 41.2309375 116.21890625 40.2109375 115.87890625 C40.2109375 115.21890625 40.2109375 114.55890625 40.2109375 113.87890625 C39.2209375 113.54890625 38.2309375 113.21890625 37.2109375 112.87890625 C35.67578125 111.390625 35.67578125 111.390625 34.1484375 109.56640625 C33.64183594 108.97214844 33.13523437 108.37789063 32.61328125 107.765625 C31.2109375 105.87890625 31.2109375 105.87890625 30.17578125 103.8046875 C28.31837229 100.09738945 24.87932532 97.511165 21.8984375 94.69140625 C20.2109375 92.87890625 20.2109375 92.87890625 20.2109375 90.87890625 C19.2209375 91.37390625 19.2209375 91.37390625 18.2109375 91.87890625 C18.2109375 102.43890625 18.2109375 112.99890625 18.2109375 123.87890625 C14.46643018 125.75115991 13.36066559 126.12441558 9.4453125 126.07421875 C8.55585938 126.06777344 7.66640625 126.06132812 6.75 126.0546875 C5.36941406 126.02955078 5.36941406 126.02955078 3.9609375 126.00390625 C2.55714844 125.99037109 2.55714844 125.99037109 1.125 125.9765625 C-1.17994907 125.95304261 -3.4843741 125.92017478 -5.7890625 125.87890625 C-6.77930414 122.90818132 -6.9125013 120.98485572 -6.90931702 117.8865509 C-6.91069168 116.85590012 -6.91206635 115.82524933 -6.91348267 114.7633667 C-6.90988739 113.63336243 -6.90629211 112.50335815 -6.90258789 111.33911133 C-6.90273392 110.14873764 -6.90287994 108.95836395 -6.9030304 107.73191833 C-6.90245272 104.46772018 -6.89743418 101.20356478 -6.89045644 97.93937516 C-6.88420914 94.52808203 -6.88361801 91.11678808 -6.88243103 87.70549011 C-6.87932178 81.24570947 -6.87111386 74.78594573 -6.86108154 68.32617253 C-6.84990781 60.97195261 -6.84440677 53.61773188 -6.83938611 46.26350558 C-6.82893092 31.13529638 -6.81133932 16.007103 -6.7890625 0.87890625 C-4.28805676 -0.37159662 -2.78563198 -0.15102824 0 0 Z " fill="#000000" transform="translate(423.7890625,54.12109375)"/>
<path d="M0 0 C4.28659913 3.83810184 7.40935801 7.61008827 8.81640625 13.23828125 C8.85765625 14.06328125 8.89890625 14.88828125 8.94140625 15.73828125 C9.60140625 15.73828125 10.26140625 15.73828125 10.94140625 15.73828125 C12.22212091 24.49316664 12.01916029 33.22847511 11.94140625 42.05078125 C11.9147574 45.1093715 11.89482301 48.16789974 11.87890625 51.2265625 C11.87060791 51.92139236 11.86230957 52.61622223 11.85375977 53.33210754 C11.83708237 56.62068167 11.92233611 59.59430946 12.94140625 62.73828125 C13.56789063 62.81304687 14.194375 62.8878125 14.83984375 62.96484375 C17.32985779 63.36544538 19.57680835 63.85802948 21.94140625 64.73828125 C25.37376673 69.75480811 23.8284927 76.97669955 22.94140625 82.73828125 C20.66308022 85.01660728 15.24972749 83.92364555 12.19140625 83.92578125 C11.28390625 83.93802734 10.37640625 83.95027344 9.44140625 83.96289062 C3.638162 83.97561704 -0.6237113 83.75575528 -5.24609375 79.92578125 C-7.16106308 77.61461137 -8.11412997 75.5716726 -9.05859375 72.73828125 C-9.43371094 73.269375 -9.80882812 73.80046875 -10.1953125 74.34765625 C-14.62661559 80.46441719 -18.446952 84.93916593 -26.05859375 86.73828125 C-39.87324356 88.6328618 -48.86508851 86.94777511 -60.68359375 79.55078125 C-61.46734375 78.95265625 -62.25109375 78.35453125 -63.05859375 77.73828125 C-63.05859375 77.07828125 -63.05859375 76.41828125 -63.05859375 75.73828125 C-63.71859375 75.73828125 -64.37859375 75.73828125 -65.05859375 75.73828125 C-69.76917655 67.53274992 -70.26094025 60.04622028 -70.05859375 50.73828125 C-69.39859375 50.73828125 -68.73859375 50.73828125 -68.05859375 50.73828125 C-68.55359375 49.25328125 -68.55359375 49.25328125 -69.05859375 47.73828125 C-67.80859375 45.30078125 -67.80859375 45.30078125 -66.05859375 42.73828125 C-65.31609375 41.62453125 -65.31609375 41.62453125 -64.55859375 40.48828125 C-63.05859375 38.73828125 -63.05859375 38.73828125 -60.05859375 37.73828125 C-59.72859375 36.74828125 -59.39859375 35.75828125 -59.05859375 34.73828125 C-57.28125 33.82421875 -57.28125 33.82421875 -55.12109375 33.11328125 C-53.01044511 32.40079369 -51.05291865 31.7354437 -49.05859375 30.73828125 C-48.39859375 31.06828125 -47.73859375 31.39828125 -47.05859375 31.73828125 C-46.72859375 31.07828125 -46.39859375 30.41828125 -46.05859375 29.73828125 C-35.16859375 29.40828125 -24.27859375 29.07828125 -13.05859375 28.73828125 C-12.85625191 21.8594412 -12.85625191 21.8594412 -16.05859375 16.73828125 C-16.71859375 16.40828125 -17.37859375 16.07828125 -18.05859375 15.73828125 C-18.05859375 15.07828125 -18.05859375 14.41828125 -18.05859375 13.73828125 C-19.15171875 13.75890625 -20.24484375 13.77953125 -21.37109375 13.80078125 C-25.05859375 13.73828125 -25.05859375 13.73828125 -28.05859375 12.73828125 C-30.49692035 13.12220473 -30.49692035 13.12220473 -33.05859375 13.92578125 C-33.92484375 14.16683594 -34.79109375 14.40789062 -35.68359375 14.65625 C-40.36105622 16.78726497 -41.93035156 21.27910713 -44.05859375 25.73828125 C-49.1510274 25.73828125 -53.26170479 24.33479184 -58.05859375 22.73828125 C-58.7753125 22.51011719 -59.49203125 22.28195313 -60.23046875 22.046875 C-63.23939469 20.9589369 -64.7861118 20.31352092 -66.18359375 17.36328125 C-66.02551376 14.04360148 -64.93587638 12.44991171 -63.05859375 9.73828125 C-62.62546875 8.74828125 -62.62546875 8.74828125 -62.18359375 7.73828125 C-59.18167761 2.40154144 -54.43232333 -0.45115957 -49.05859375 -3.01171875 C-48.4553125 -3.31464844 -47.85203125 -3.61757812 -47.23046875 -3.9296875 C-33.57567359 -10.60866339 -12.22619649 -9.0739543 0 0 Z M-44.43359375 52.48828125 C-46.3080939 55.60805167 -46.3080939 55.60805167 -45.99609375 58.92578125 C-44.53889521 63.29737687 -42.97498902 64.21462681 -38.99609375 66.48828125 C-34.34409474 68.36488382 -29.8680092 67.82612522 -25.05859375 66.73828125 C-22.22200788 65.42154292 -22.22200788 65.42154292 -20.05859375 63.73828125 C-19.07246094 63.31289062 -19.07246094 63.31289062 -18.06640625 62.87890625 C-14.57060185 60.89296289 -13.41136724 57.39707795 -12.05859375 53.73828125 C-11.63555869 50.94184881 -11.63555869 50.94184881 -12.05859375 48.73828125 C-14.57110274 46.22577226 -21.43201595 47.55273529 -24.80859375 47.55078125 C-25.906875 47.53853516 -27.00515625 47.52628906 -28.13671875 47.51367188 C-29.19890625 47.51173828 -30.26109375 47.50980469 -31.35546875 47.5078125 C-32.32838867 47.50370361 -33.30130859 47.49959473 -34.30371094 47.49536133 C-38.93972081 47.90415518 -41.38243259 48.95535781 -44.43359375 52.48828125 Z " fill="#010101" transform="translate(347.05859375,95.26171875)"/>
<path d="M0 0 C14.89429033 8.21233664 14.89429033 8.21233664 17.51171875 15.86328125 C17.57359375 16.39953125 17.63546875 16.93578125 17.69921875 17.48828125 C18.35921875 17.48828125 19.01921875 17.48828125 19.69921875 17.48828125 C20.35178331 19.19405467 20.99594916 20.90304214 21.63671875 22.61328125 C22.17619141 24.04027344 22.17619141 24.04027344 22.7265625 25.49609375 C27.41199835 39.90992452 25.31219582 56.71097391 19.69921875 70.48828125 C19.03921875 70.48828125 18.37921875 70.48828125 17.69921875 70.48828125 C17.47234375 71.21015625 17.24546875 71.93203125 17.01171875 72.67578125 C15.43586747 76.05260542 13.49045259 78.04595164 10.69921875 80.48828125 C10.03921875 80.48828125 9.37921875 80.48828125 8.69921875 80.48828125 C8.36921875 81.14828125 8.03921875 81.80828125 7.69921875 82.48828125 C5.83893483 83.55295385 3.93494935 84.54204233 2.01171875 85.48828125 C0.97660156 86.00390625 -0.05851563 86.51953125 -1.125 87.05078125 C-6.4182709 89.44675135 -10.50064682 90.61168837 -16.30078125 90.48828125 C-17.04328125 90.67390625 -17.78578125 90.85953125 -18.55078125 91.05078125 C-27.82083799 92.525563 -38.02654004 89.54097082 -46.30078125 85.48828125 C-46.79578125 84.49828125 -46.79578125 84.49828125 -47.30078125 83.48828125 C-49.8281136 82.83273006 -49.8281136 82.83273006 -52.30078125 82.48828125 C-52.30078125 81.82828125 -52.30078125 81.16828125 -52.30078125 80.48828125 C-52.96078125 80.48828125 -53.62078125 80.48828125 -54.30078125 80.48828125 C-64.38494268 69.8366129 -69.26778673 57.93991388 -69.61328125 43.17578125 C-69.45792735 38.45302281 -68.46399133 34.05024579 -67.30078125 29.48828125 C-67.15640625 28.60140625 -67.01203125 27.71453125 -66.86328125 26.80078125 C-66.11793727 23.73658933 -64.79854093 21.26191029 -63.30078125 18.48828125 C-62.49640625 16.81765625 -62.49640625 16.81765625 -61.67578125 15.11328125 C-55.87751548 5.07782127 -45.80890025 0.8108484 -35.30078125 -2.51171875 C-24.62918866 -6.06891628 -10.08969856 -4.6821477 0 0 Z M-38.30078125 24.48828125 C-39.00203125 25.14828125 -39.70328125 25.80828125 -40.42578125 26.48828125 C-44.7905009 33.4718327 -46.02743636 41.71415565 -44.9375 49.8125 C-43.54421551 55.66771396 -41.24931018 61.4885522 -36.23828125 65.11328125 C-33.23755155 66.77090799 -33.23755155 66.77090799 -29.30078125 66.48828125 C-29.30078125 67.14828125 -29.30078125 67.80828125 -29.30078125 68.48828125 C-20.1188404 70.32068593 -13.4579064 68.34115899 -5.36328125 63.86328125 C0.17895238 57.48131525 1.99956787 48.78253762 1.69921875 40.48828125 C0.66641423 34.13907313 -1.05387424 28.39876748 -5.30078125 23.48828125 C-6.29078125 23.48828125 -7.28078125 23.48828125 -8.30078125 23.48828125 C-8.79578125 22.00328125 -8.79578125 22.00328125 -9.30078125 20.48828125 C-19.46015027 15.91656519 -30.08335266 16.72737647 -38.30078125 24.48828125 Z " fill="#010101" transform="translate(563.30078125,91.51171875)"/>
<path d="M0 0 C1.90771484 -0.37231445 1.90771484 -0.37231445 4.2109375 -0.36328125 C5.04367187 -0.36263672 5.87640625 -0.36199219 6.734375 -0.36132812 C7.60578125 -0.34521484 8.4771875 -0.32910156 9.375 -0.3125 C10.23867188 -0.31572266 11.10234375 -0.31894531 11.9921875 -0.32226562 C16.34137302 -0.28535124 19.12063625 -0.04482641 23 2 C23.02312269 13.19573244 23.04091471 24.39145924 23.05181217 35.58721066 C23.05704116 40.78528115 23.0641391 45.98333536 23.07543945 51.18139648 C23.08626776 56.19342268 23.09227671 61.20543318 23.09487724 66.21747017 C23.09673159 68.13412282 23.1003524 70.05077457 23.10573006 71.96742058 C23.11293975 74.64228072 23.11399097 77.31707514 23.11352539 79.99194336 C23.11712067 80.7925116 23.12071594 81.59307983 23.12442017 82.41790771 C23.11405216 87.88594784 23.11405216 87.88594784 22 89 C18.34669741 89.38167576 14.66915889 89.46983656 11 89.625 C9.96359375 89.6765625 8.9271875 89.728125 7.859375 89.78125 C6.87453125 89.82507813 5.8896875 89.86890625 4.875 89.9140625 C3.96492188 89.9548291 3.05484375 89.9955957 2.1171875 90.03759766 C0 90 0 90 -1 89 C-1.13576079 86.33901137 -1.20728935 83.7024807 -1.23706055 81.03955078 C-1.25017273 80.20541656 -1.26328491 79.37128235 -1.27679443 78.51187134 C-1.31875558 75.7397327 -1.3531646 72.96756487 -1.38671875 70.1953125 C-1.41235976 68.27578546 -1.43814381 66.35626033 -1.46406555 64.43673706 C-1.51712001 60.40659109 -1.56603336 56.37641788 -1.61254883 52.34619141 C-1.67290169 47.17514967 -1.7471183 42.00440945 -1.82492352 36.83360481 C-1.88245935 32.86692686 -1.93078837 28.9001759 -1.976511 24.93334579 C-1.99995798 23.02667815 -2.02672383 21.1200484 -2.05682945 19.21347427 C-2.09789054 16.54873966 -2.12613185 13.88416533 -2.15112305 11.21923828 C-2.16609329 10.42743164 -2.18106354 9.635625 -2.19648743 8.81982422 C-2.21872841 4.99166833 -2.17772753 3.2665913 0 0 Z " fill="#000000" transform="translate(379,90)"/>
<path d="M0 0 C0 0.66 0 1.32 0 2 C0.928125 2.226875 1.85625 2.45375 2.8125 2.6875 C6.63449239 4.26126157 7.41159316 5.23798379 9 9 C10.529575 14.79053391 9.79489093 18.84353456 7 24 C3.53227738 28.4309789 0.53065604 30.02970947 -5 31 C-9.95023755 30.7937401 -14.13507027 29.08820051 -18 26 C-20.98214501 22.55435444 -22.22888872 19.29845359 -22.3125 14.75 C-22 11 -22 11 -21 8 C-20.34 8 -19.68 8 -19 8 C-18.79375 7.236875 -18.5875 6.47375 -18.375 5.6875 C-14.71940959 -1.45751763 -6.95326403 -0.33405361 0 0 Z " fill="#010101" transform="translate(396,52)"/>
<path d="" fill="#000000" transform="translate(0,0)"/>
<path d="" fill="#000000" transform="translate(0,0)"/>
<path d="" fill="#000000" transform="translate(0,0)"/>
<path d="" fill="#000000" transform="translate(0,0)"/>
<path d="" fill="#000000" transform="translate(0,0)"/>
<path d="" fill="#000000" transform="translate(0,0)"/>
<path d="" fill="#000000" transform="translate(0,0)"/>
<path d="" fill="#000000" transform="translate(0,0)"/>
<path d="" fill="#000000" transform="translate(0,0)"/>
<path d="" fill="#000000" transform="translate(0,0)"/>
<path d="" fill="#000000" transform="translate(0,0)"/>
<path d="" fill="#000000" transform="translate(0,0)"/>
<path d="" fill="#000000" transform="translate(0,0)"/>
<path d="" fill="#2A2A2A" transform="translate(0,0)"/>
<path d="" fill="#000000" transform="translate(0,0)"/>
<path d="" fill="#000000" transform="translate(0,0)"/>
<path d="" fill="#000000" transform="translate(0,0)"/>
<path d="" fill="#000000" transform="translate(0,0)"/>
<path d="" fill="#000000" transform="translate(0,0)"/>
</svg>
