<?xml version="1.0" encoding="UTF-8"?>
<svg version="1.1" xmlns="http://www.w3.org/2000/svg" width="691" height="333">
<path d="M0 0 C8.74037242 5.26884422 14.76385563 12.35778154 19.25 21.5 C19.25 22.16 19.25 22.82 19.25 23.5 C19.91 23.5 20.57 23.5 21.25 23.5 C22.25460531 25.62282669 23.25355602 27.74833021 24.25 29.875 C24.806875 31.05835938 25.36375 32.24171875 25.9375 33.4609375 C27.25 36.5 27.25 36.5 27.25 38.5 C27.91 38.5 28.57 38.5 29.25 38.5 C29.51103516 39.05236328 29.77207031 39.60472656 30.04101562 40.17382812 C34.46024707 49.5153559 38.88235844 58.84832862 43.5625 68.0625 C46.31792854 73.49719519 48.81205505 78.98581133 51.046875 84.65625 C52.29877473 87.61528572 53.70589249 90.45356388 55.15722656 93.31835938 C57.49222811 97.98001572 59.67575209 102.7158483 61.89453125 107.43359375 C64.2797624 112.49093952 66.73107526 117.50804187 69.25 122.5 C69.8703107 123.73932368 70.49010598 124.97890548 71.109375 126.21875 C71.41673584 126.83258545 71.72409668 127.4464209 72.04077148 128.07885742 C72.70458119 129.40833529 73.36535318 130.73933263 74.02368164 132.0715332 C75.78843833 135.63239289 77.59366303 139.1557415 79.51171875 142.63671875 C84.71113547 152.20975572 88.21464966 161.12063595 85.3125 172.1875 C83.14737119 177.60535722 79.42800251 182.46519515 75.25 186.5 C74.26 186.5 73.27 186.5 72.25 186.5 C72.25 187.16 72.25 187.82 72.25 188.5 C61.69407253 192.34684559 52.70306276 192.79434442 42.25 188.5 C41.239375 188.108125 40.22875 187.71625 39.1875 187.3125 C38.548125 187.044375 37.90875 186.77625 37.25 186.5 C37.25 185.84 37.25 185.18 37.25 184.5 C36.59 184.4175 35.93 184.335 35.25 184.25 C32.63629251 183.59657313 30.96173597 182.8781833 28.63671875 181.6171875 C24.24139366 179.38190234 19.83345419 178.06542397 15.0625 176.875 C14.22662354 176.66335205 13.39074707 176.4517041 12.52954102 176.23364258 C-16.84324149 168.96180871 -45.08469499 172.34351398 -71.75 186.5 C-82.79586473 191.83856742 -92.06833372 193.0926768 -103.9140625 189.15625 C-104.51992187 188.9396875 -105.12578125 188.723125 -105.75 188.5 C-105.75 187.84 -105.75 187.18 -105.75 186.5 C-106.36875 186.190625 -106.9875 185.88125 -107.625 185.5625 C-109 184.875 -110.375 184.1875 -111.75 183.5 C-111.75 182.84 -111.75 182.18 -111.75 181.5 C-112.41 181.5 -113.07 181.5 -113.75 181.5 C-114.56752303 179.91925436 -115.37881997 178.33528777 -116.1875 176.75 C-116.86619141 175.42742187 -116.86619141 175.42742187 -117.55859375 174.078125 C-119.23549976 170.44941035 -119.91290895 167.29691561 -120 163.3125 C-120.02578125 162.61769531 -120.0515625 161.92289063 -120.078125 161.20703125 C-119.04722381 152.70209645 -114.75458944 145.3038036 -110.75 137.875 C-107.51160002 131.82060004 -104.39492334 125.8356903 -101.75 119.5 C-100.51767686 116.93866059 -99.22728748 114.40778702 -97.9375 111.875 C-93.43361537 102.93942491 -89.20926668 93.90073737 -85.24853516 84.7109375 C-81.69821607 76.48705696 -77.82852685 68.47535298 -73.76171875 60.49560547 C-72.75715188 58.51410701 -71.76671834 56.52621454 -70.78125 54.53515625 C-64.21911582 41.28052516 -57.55129983 28.07664093 -49.75 15.5 C-48.98816406 14.13101563 -48.98816406 14.13101563 -48.2109375 12.734375 C-47.72882813 11.99703125 -47.24671875 11.2596875 -46.75 10.5 C-46.09 10.5 -45.43 10.5 -44.75 10.5 C-44.75 9.84 -44.75 9.18 -44.75 8.5 C-44.09 8.5 -43.43 8.5 -42.75 8.5 C-42.42 7.51 -42.09 6.52 -41.75 5.5 C-30.36235361 -3.79603787 -13.56751352 -6.35111921 0 0 Z M-25.87109375 48.4609375 C-28.69746049 51.52822115 -28.90430934 55.01043142 -29.4375 59 C-29.61901611 60.20970459 -29.61901611 60.20970459 -29.80419922 61.44384766 C-30.57482878 66.72408725 -31.18402235 72.01033519 -31.5390625 77.3359375 C-31.74758379 79.47521147 -32.17402661 81.43216112 -32.75 83.5 C-40.76747112 85.59151421 -48.5966481 86.98795663 -56.83569336 87.76513672 C-61.05012601 88.18832251 -64.84758194 88.81660398 -68.75 90.5 C-70.53976707 93.85581326 -70.96850688 95.6061082 -70.0625 99.3125 C-68.882192 101.81748676 -68.882192 101.81748676 -65.75 102.5 C-63.02807602 102.63287065 -60.33258306 102.71222023 -57.609375 102.73828125 C-56.40876434 102.75038887 -56.40876434 102.75038887 -55.18389893 102.76274109 C-53.48932043 102.77656601 -51.79471427 102.78729528 -50.10009766 102.79516602 C-48.37377723 102.80667482 -46.64749207 102.82710935 -44.92138672 102.85668945 C-42.42130456 102.89953023 -39.92227946 102.91555833 -37.421875 102.92578125 C-36.27619049 102.95204338 -36.27619049 102.95204338 -35.10736084 102.97883606 C-28.73043812 102.95329918 -24.74154091 101.00903431 -19.8125 96.875 C-18.54618417 95.52585164 -18.54618417 95.52585164 -18.75 93.5 C-18.09 93.5 -17.43 93.5 -16.75 93.5 C-15.05129412 88.34315406 -14.45377995 83.70713027 -14.484375 78.265625 C-14.48246155 77.50578308 -14.4805481 76.74594116 -14.47857666 75.96307373 C-14.4772244 74.36974757 -14.48085328 72.77641003 -14.48925781 71.18310547 C-14.50003128 68.74291478 -14.48929978 66.30345024 -14.4765625 63.86328125 C-14.4778831 62.30989421 -14.48044343 60.75650762 -14.484375 59.203125 C-14.48032654 58.47498596 -14.47627808 57.74684692 -14.47210693 56.99664307 C-14.50665209 53.28199034 -14.63447049 51.67329427 -16.75 48.5 C-21.375676 47.29004204 -21.375676 47.29004204 -25.87109375 48.4609375 Z M-10.75 101.5 C-10.75 102.16 -10.75 102.82 -10.75 103.5 C-11.61625 103.809375 -11.61625 103.809375 -12.5 104.125 C-16.14281293 106.35116346 -18.24896594 109.62947283 -19.35058594 113.7421875 C-20.14278425 119.212036 -19.97556682 124.75696994 -19.99023438 130.27441406 C-19.99997023 132.49321565 -20.03104464 134.71110163 -20.0625 136.9296875 C-20.0690284 138.34895288 -20.07427951 139.76822482 -20.078125 141.1875 C-20.0874707 142.47011719 -20.09681641 143.75273437 -20.10644531 145.07421875 C-19.72570354 148.73351225 -18.98495183 150.60944443 -16.75 153.5 C-14.40127469 154.66977494 -14.40127469 154.66977494 -11.75 154.5 C-9.4668162 153.3584081 -7.55987317 152.30987317 -5.75 150.5 C-5.392401 147.91567109 -5.0859814 145.34348285 -4.8125 142.75 C-2.62539676 123.12619029 -2.62539676 123.12619029 -0.75 117.5 C6.54459732 116.01902344 13.8316888 115.01631841 21.23413086 114.28564453 C26.19190543 113.75830763 30.91363903 113.05757398 35.125 110.25 C36.8400433 107.58215487 36.63653327 105.59226613 36.25 102.5 C35.29451019 100.54374022 35.29451019 100.54374022 33.25 99.5 C26.36605364 98.1036818 19.37332283 98.27919008 12.375 98.25 C11.14652344 98.229375 9.91804688 98.20875 8.65234375 98.1875 C1.49753218 98.15682557 -4.11645636 98.77781147 -10.75 101.5 Z " fill="#FDFCFC" transform="translate(181.75,59.5)"/>
<path d="M0 0 C0 21.78 0 43.56 0 66 C1.485 65.505 1.485 65.505 3 65 C3.33 64.34 3.66 63.68 4 63 C4.66 63 5.32 63 6 63 C6.3403125 61.9171875 6.3403125 61.9171875 6.6875 60.8125 C8.28577925 57.38761589 10.23588741 55.57983841 13 53 C14.25545017 51.77640057 15.50527162 50.54700474 16.75 49.3125 C17.34296875 48.73113281 17.9359375 48.14976562 18.546875 47.55078125 C20.09641804 46.04486026 20.09641804 46.04486026 21 44 C21.66 44 22.32 44 23 44 C23.226875 43.46375 23.45375 42.9275 23.6875 42.375 C27.27546029 35.88250042 27.27546029 35.88250042 30 34 C34.22427357 33.2155084 38.3453976 33.39024843 42.625 33.5625 C44.34203125 33.59053711 44.34203125 33.59053711 46.09375 33.61914062 C54.39975515 33.79991838 54.39975515 33.79991838 58 35 C57.40312566 38.34249629 56.26396123 40.46436342 54 43 C53.34 43 52.68 43 52 43 C51.731875 43.58265625 51.46375 44.1653125 51.1875 44.765625 C49.98519009 47.02786601 48.66174087 48.80576318 47 50.75 C46.484375 51.36359375 45.96875 51.9771875 45.4375 52.609375 C44 54 44 54 42 54 C42 54.66 42 55.32 42 56 C41.34 56 40.68 56 40 56 C40 56.66 40 57.32 40 58 C39.34 58 38.68 58 38 58 C38 58.66 38 59.32 38 60 C33.69767442 64.76744186 33.69767442 64.76744186 30 66 C29.731875 66.556875 29.46375 67.11375 29.1875 67.6875 C27.68746897 70.60861306 25.61301856 72.31009173 23.14453125 74.4375 C21.76617891 75.95614834 21.76617891 75.95614834 22.1953125 78.0546875 C23.26197723 80.63332359 25.01250964 82.07662223 27 84 C27 84.66 27 85.32 27 86 C27.66 86 28.32 86 29 86 C30.65625 87.609375 30.65625 87.609375 32.5 89.75 C33.41265625 90.79414063 33.41265625 90.79414063 34.34375 91.859375 C36 94 36 94 37.03125 96.203125 C37.9273424 98.35632919 37.9273424 98.35632919 41 99 C42.6484375 100.671875 42.6484375 100.671875 44.375 102.75 C46.36199388 105.0944865 48.32438137 107.32438137 50.5 109.5 C52.66484063 111.66484063 54.75583012 113.85812939 56.8125 116.125 C57.41707031 116.78757812 58.02164063 117.45015625 58.64453125 118.1328125 C60 120 60 120 60 123 C54.40225351 123.79064216 48.9633347 124.1824501 43.3125 124.1875 C42.57966797 124.19974609 41.84683594 124.21199219 41.09179688 124.22460938 C36.98454516 124.23572006 33.60265382 124.07342027 30 122 C29.67 121.01 29.34 120.02 29 119 C28.34 119 27.68 119 27 119 C25.66796875 117.42578125 25.66796875 117.42578125 24.1875 115.3125 C22.30816858 112.70360012 20.45813656 110.33848853 18.125 108.125 C17.42375 107.42375 16.7225 106.7225 16 106 C16 105.34 16 104.68 16 104 C15.34 104 14.68 104 14 104 C14 103.34 14 102.68 14 102 C13.34 102 12.68 102 12 102 C10.34375 100.390625 10.34375 100.390625 8.5 98.25 C7.58734375 97.20585937 7.58734375 97.20585937 6.65625 96.140625 C5.12023037 94.15539208 4.0276034 92.28127955 3 90 C1.515 90.495 1.515 90.495 0 91 C0.01571045 91.89307861 0.0314209 92.78615723 0.04760742 93.70629883 C0.09875439 97.02178756 0.13635812 100.33685675 0.16479492 103.65258789 C0.17987589 105.08722552 0.2003438 106.52181708 0.22631836 107.95629883 C0.26273437 110.01915859 0.27973243 112.08140858 0.29296875 114.14453125 C0.3086792 115.38565674 0.32438965 116.62678223 0.34057617 117.90551758 C0 121 0 121 -1.23095703 122.90356445 C-3.48592932 124.30117425 -4.95091395 124.38737318 -7.59765625 124.3984375 C-8.48130859 124.40230469 -9.36496094 124.40617187 -10.27539062 124.41015625 C-11.65500977 124.39275391 -11.65500977 124.39275391 -13.0625 124.375 C-13.98611328 124.38660156 -14.90972656 124.39820313 -15.86132812 124.41015625 C-17.18487305 124.40435547 -17.18487305 124.40435547 -18.53515625 124.3984375 C-19.74764038 124.39336182 -19.74764038 124.39336182 -20.98461914 124.38818359 C-21.98223267 124.19603271 -21.98223267 124.19603271 -23 124 C-25.16306614 120.7554008 -25.24957962 119.88486566 -25.24723816 116.14172363 C-25.25143265 115.14065079 -25.25562714 114.13957794 -25.25994873 113.10816956 C-25.25432922 112.01093063 -25.24870972 110.91369171 -25.24291992 109.78320312 C-25.24481827 108.62690903 -25.24671661 107.47061493 -25.24867249 106.27928162 C-25.25238554 102.44653605 -25.24166826 98.61397881 -25.23046875 94.78125 C-25.22927712 92.12471231 -25.2287729 89.46818259 -25.2290802 86.81164551 C-25.22814356 81.23980352 -25.21945971 75.66801599 -25.20581055 70.09619141 C-25.19008503 63.65292824 -25.18481245 57.2097247 -25.1855461 50.76644373 C-25.18615637 44.57011239 -25.18105103 38.37380048 -25.17275429 32.17747498 C-25.16956546 29.53958758 -25.16759971 26.90169842 -25.16686058 24.2638092 C-25.16469931 20.58144111 -25.15595956 16.89914877 -25.14526367 13.21679688 C-25.14594345 11.57093849 -25.14594345 11.57093849 -25.14663696 9.89183044 C-25.14237198 8.8907576 -25.13810699 7.88968475 -25.13371277 6.85827637 C-25.13203692 5.98739128 -25.13036108 5.1165062 -25.12863445 4.21923065 C-25 2 -25 2 -24 -1 C-21.12546578 -1.22297226 -18.2513818 -1.42878171 -15.375 -1.625 C-14.56675781 -1.68945312 -13.75851562 -1.75390625 -12.92578125 -1.8203125 C-11.73662109 -1.89765625 -11.73662109 -1.89765625 -10.5234375 -1.9765625 C-9.80075684 -2.02893066 -9.07807617 -2.08129883 -8.33349609 -2.13525391 C-6 -2 -6 -2 0 0 Z " fill="#FDFCFC" transform="translate(478,82)"/>
<path d="M0 0 C6.80647858 5.67206549 11.17180257 11.61717998 12.44018555 20.62670898 C12.95685756 29.32027722 13.15189188 37.97901285 13.125 46.6875 C13.12886719 47.98236328 13.13273437 49.27722656 13.13671875 50.61132812 C13.13542969 51.84689453 13.13414062 53.08246094 13.1328125 54.35546875 C13.13168457 55.46559326 13.13055664 56.57571777 13.12939453 57.71948242 C13 60.5 13 60.5 12 63.5 C12.78246094 63.63277344 13.56492187 63.76554687 14.37109375 63.90234375 C15.38300781 64.07894531 16.39492188 64.25554687 17.4375 64.4375 C18.44683594 64.61152344 19.45617187 64.78554687 20.49609375 64.96484375 C23 65.5 23 65.5 24 66.5 C24.08631874 67.84267413 24.10706473 69.18974322 24.09765625 70.53515625 C24.09282227 71.74848633 24.09282227 71.74848633 24.08789062 72.98632812 C24.07532227 74.2615332 24.07532227 74.2615332 24.0625 75.5625 C24.05798828 76.41650391 24.05347656 77.27050781 24.04882812 78.15039062 C24.03700373 80.26695663 24.01906769 82.38348685 24 84.5 C15.4920844 86.42514879 5.84643115 86.80753057 -2 82.5 C-4.25800481 80.60772836 -5.38580213 79.05147405 -7 76.5 C-7 75.18 -7 73.86 -7 72.5 C-7.66 72.5 -8.32 72.5 -9 72.5 C-9.268125 73.056875 -9.53625 73.61375 -9.8125 74.1875 C-10.204375 74.950625 -10.59625 75.71375 -11 76.5 C-11.45375 77.386875 -11.9075 78.27375 -12.375 79.1875 C-14 81.5 -14 81.5 -16.1875 82.3125 C-16.785625 82.374375 -17.38375 82.43625 -18 82.5 C-18 83.16 -18 83.82 -18 84.5 C-28.78966838 88.76509244 -40.69080461 89.38219119 -51.4921875 84.8359375 C-57.42082274 81.67769256 -63.22935878 77.81090501 -66 71.5 C-66.41185547 70.64148438 -66.41185547 70.64148438 -66.83203125 69.765625 C-70.17260894 62.1387353 -69.97764462 54.34783421 -67.03515625 46.6015625 C-63.67356611 39.77690026 -58.87556131 36.35172666 -52 33.5 C-50.96214355 32.99654053 -49.92428711 32.49308105 -48.85498047 31.97436523 C-44.98045332 30.31872379 -41.27569619 30.02721538 -37.09765625 29.98828125 C-36.3750914 29.97033005 -35.65252655 29.95237885 -34.9080658 29.93388367 C-32.62626789 29.88019994 -30.34467394 29.84602237 -28.0625 29.8125 C-26.50452915 29.77928964 -24.94658509 29.74479659 -23.38867188 29.70898438 C-19.5925962 29.6244988 -15.79657656 29.5574902 -12 29.5 C-11.85581428 24.38741461 -12.08898309 21.74523299 -15 17.5 C-15 16.84 -15 16.18 -15 15.5 C-23.13633103 13.17258616 -29.80761447 13.65010649 -38 15.5 C-38 16.16 -38 16.82 -38 17.5 C-38.66 17.5 -39.32 17.5 -40 17.5 C-40.2475 18.77875 -40.495 20.0575 -40.75 21.375 C-41.70496485 25.29173989 -41.70496485 25.29173989 -44.125 27 C-45.053125 27.2475 -45.053125 27.2475 -46 27.5 C-46 26.84 -46 26.18 -46 25.5 C-47.36125 25.4071875 -47.36125 25.4071875 -48.75 25.3125 C-54.50767002 24.52898202 -59.73614376 21.84237281 -65 19.5 C-63.31580367 10.70475248 -57.58951777 3.7822806 -50.25390625 -1.21484375 C-35.51448489 -9.61912386 -14.20377497 -9.61806984 0 0 Z M-43 51.5 C-44.63378548 54.63142217 -45.06306655 56.61706824 -44.8125 60.125 C-43.862946 62.90061938 -43.12142813 64.44928614 -41 66.5 C-33.18232976 69.45006424 -27.80074546 68.84195816 -20.28125 65.6484375 C-17.6178246 64.30760348 -15.76926349 62.91263203 -14 60.5 C-14 59.84 -14 59.18 -14 58.5 C-13.34 58.5 -12.68 58.5 -12 58.5 C-11.80587819 57.02168779 -11.61987869 55.54230684 -11.4375 54.0625 C-11.33308594 53.23878906 -11.22867188 52.41507813 -11.12109375 51.56640625 C-11.08113281 50.88449219 -11.04117188 50.20257813 -11 49.5 C-13.50974222 46.99025778 -20.25612878 48.26572402 -23.625 48.25 C-25.24728516 48.2190625 -25.24728516 48.2190625 -26.90234375 48.1875 C-33.02088385 48.15761702 -37.67252609 48.35664282 -43 51.5 Z " fill="#FBFAFA" transform="translate(382,120.5)"/>
<path d="M0 0 C2.905359 2.59325093 4.65237685 5.24997182 6.66015625 8.58203125 C7.33433594 9.68289062 8.00851562 10.78375 8.703125 11.91796875 C15.59560393 24.72915475 14.8365525 41.40486302 11.47265625 55.20703125 C10.61613871 57.66795237 9.64054471 59.87125433 8.47265625 62.20703125 C7.81265625 62.20703125 7.15265625 62.20703125 6.47265625 62.20703125 C6.20453125 62.7896875 5.93640625 63.37234375 5.66015625 63.97265625 C4.45784634 66.23489726 3.13439712 68.01279443 1.47265625 69.95703125 C0.95703125 70.570625 0.44140625 71.18421875 -0.08984375 71.81640625 C-1.52734375 73.20703125 -1.52734375 73.20703125 -3.52734375 73.20703125 C-3.52734375 73.86703125 -3.52734375 74.52703125 -3.52734375 75.20703125 C-16.90949522 82.87464236 -32.22630326 85.83366744 -47.40234375 81.89453125 C-51.58544295 80.60836605 -55.56327227 79.05693127 -59.52734375 77.20703125 C-59.52734375 76.54703125 -59.52734375 75.88703125 -59.52734375 75.20703125 C-60.64302734 74.83191406 -60.64302734 74.83191406 -61.78125 74.44921875 C-70.31718865 70.58801179 -75.29789051 60.54509693 -78.52734375 52.20703125 C-79.33008576 49.16086455 -79.50312761 46.35028606 -79.52734375 43.20703125 C-79.56472656 42.05074219 -79.60210938 40.89445312 -79.640625 39.703125 C-79.92712419 24.75993019 -77.95835751 12.67568812 -67.21484375 1.45703125 C-64.52734375 -0.79296875 -64.52734375 -0.79296875 -62.52734375 -0.79296875 C-62.52734375 -1.45296875 -62.52734375 -2.11296875 -62.52734375 -2.79296875 C-42.55916343 -15.38160417 -18.729129 -13.28697096 0 0 Z M-40.52734375 11.58203125 C-41.56375 11.99001953 -41.56375 11.99001953 -42.62109375 12.40625 C-44.6395252 13.25415665 -46.60184675 14.16405371 -48.52734375 15.20703125 C-48.52734375 15.86703125 -48.52734375 16.52703125 -48.52734375 17.20703125 C-49.51734375 17.53703125 -50.50734375 17.86703125 -51.52734375 18.20703125 C-51.52734375 19.19703125 -51.52734375 20.18703125 -51.52734375 21.20703125 C-52.18734375 21.20703125 -52.84734375 21.20703125 -53.52734375 21.20703125 C-56.72665161 32.57632303 -58.09799664 42.29497533 -52.1640625 52.97265625 C-48.76691979 57.61028306 -44.56468212 60.47436032 -38.96875 61.82421875 C-30.65501872 62.8618534 -24.39704693 61.86817776 -17.54296875 56.92578125 C-11.98269965 52.18446651 -10.70145053 46.39243483 -9.7109375 39.40625 C-9.30072415 32.2580642 -10.29474189 24.13267386 -14.52734375 18.20703125 C-21.26699744 11.48361769 -31.31070368 7.94577872 -40.52734375 11.58203125 Z " fill="#FCFBFB" transform="translate(610.52734375,124.79296875)"/>
<path d="M0 0 C0 28.71 0 57.42 0 87 C-4.31406007 88.07851502 -8.14528653 88.29299266 -12.5625 88.375 C-13.33013672 88.41238281 -14.09777344 88.44976562 -14.88867188 88.48828125 C-17.12890625 88.5234375 -17.12890625 88.5234375 -21 88 C-24.48580078 83.93085497 -24.38273373 79.82697861 -24.2487793 74.72143555 C-24.23946381 73.90140549 -24.23014832 73.08137543 -24.22055054 72.23649597 C-24.18627832 69.53614241 -24.13036812 66.83669856 -24.07421875 64.13671875 C-24.04617533 62.26058365 -24.01948602 60.38442787 -23.99409485 58.508255 C-23.92373355 53.57770297 -23.83500029 48.6476467 -23.74243164 43.71746826 C-23.65116969 38.68356059 -23.57729421 33.64940104 -23.50195312 28.61523438 C-23.35164623 18.74316556 -23.18192833 8.87153316 -23 -1 C-19.91772291 -1.22655901 -16.8342984 -1.42803465 -13.75 -1.625 C-12.87730469 -1.68945312 -12.00460937 -1.75390625 -11.10546875 -1.8203125 C-10.26113281 -1.871875 -9.41679687 -1.9234375 -8.546875 -1.9765625 C-7.77182617 -2.02893066 -6.99677734 -2.08129883 -6.19824219 -2.13525391 C-4 -2 -4 -2 0 0 Z " fill="#FDFCFD" transform="translate(437,118)"/>
<path d="M0 0 C4.34281774 1.79342288 6.55870988 4.28290356 9 8.25 C10.53720217 14.01450812 10.09602222 18.66499614 7.5625 24.0625 C7.046875 24.701875 6.53125 25.34125 6 26 C5.34 26 4.68 26 4 26 C4 26.66 4 27.32 4 28 C3.01 28 2.02 28 1 28 C0.67 28.66 0.34 29.32 0 30 C-4.51617599 30.07654536 -8.59085217 30.10228696 -13 29 C-13 28.34 -13 27.68 -13 27 C-13.763125 26.87625 -14.52625 26.7525 -15.3125 26.625 C-19.07989247 24.34704176 -19.620147 21.90173783 -20.69921875 17.7421875 C-21.31996695 12.08289868 -19.07407447 7.6111117 -16 3 C-15.01 3 -14.02 3 -13 3 C-12.67 2.34 -12.34 1.68 -12 1 C-8.25458817 -0.87270592 -4.07845529 -0.53117606 0 0 Z " fill="#FBFAFB" transform="translate(431,78)"/>
<path d="M0 0 C1.5 1.375 1.5 1.375 3 3 C3 3.66 3 4.32 3 5 C-2.59774649 5.79064216 -8.0366653 6.1824501 -13.6875 6.1875 C-14.78674805 6.20586914 -14.78674805 6.20586914 -15.90820312 6.22460938 C-20.05813683 6.23583553 -23.27064667 5.8609988 -27 4 C-26.67 3.34 -26.34 2.68 -26 2 C-25.67 2.33 -25.34 2.66 -25 3 C-23.21928754 3.08726223 -21.4351686 3.10699041 -19.65234375 3.09765625 C-18.57275391 3.09443359 -17.49316406 3.09121094 -16.38085938 3.08789062 C-15.24455078 3.07951172 -14.10824219 3.07113281 -12.9375 3.0625 C-11.79732422 3.05798828 -10.65714844 3.05347656 -9.48242188 3.04882812 C-6.65489649 3.03699747 -3.8274736 3.0205141 -1 3 C-0.67 2.01 -0.34 1.02 0 0 Z " fill="#F3EDED" transform="translate(535,200)"/>
<path d="M0 0 C0.66 0.33 1.32 0.66 2 1 C0.68 2.32 -0.64 3.64 -2 5 C-1.34 5.66 -0.68 6.32 0 7 C-0.928125 7.28875 -1.85625 7.5775 -2.8125 7.875 C-6.09791667 8.8875 -6.09791667 8.8875 -9 11 C-8.67 9.68 -8.34 8.36 -8 7 C-7.34 7 -6.68 7 -6 7 C-6 6.34 -6 5.68 -6 5 C-5.34 5 -4.68 5 -4 5 C-3.67 4.01 -3.34 3.02 -3 2 C-2.01 1.34 -1.02 0.68 0 0 Z " fill="#EDE9E9" transform="translate(143,63)"/>
<path d="" fill="#FFFFFF" transform="translate(0,0)"/>
</svg>
